HIERARCHY
ROOT hip
{
  OFFSET 0 0 0
  CHANNELS 6 Xposition Yposition Zposition Zrotation Yrotation Xrotation
  JOINT abdomen
  {
    OFFSET 0 20.6881 -0.73152
    CHANNELS 3 Zrotation Xrotation Yrotation
    JOINT chest
    {
      OFFSET 0 11.7043 -0.48768
      CHANNELS 3 Zrotation Xrotation Yrotation
      JOINT neck
      {
        OFFSET 0 22.1894 -2.19456
        CHANNELS 3 Zrotation Xrotation Yrotation
        JOINT head
        {
          OFFSET -0.24384 7.07133 1.2192
          CHANNELS 3 Zrotation Xrotation Yrotation
          JOINT leftEye
          {
            OFFSET 4.14528 8.04674 8.04672
            CHANNELS 3 Zrotation Xrotation Yrotation
            End Site
            {
              OFFSET 1 0 0
            }
          }
          JOINT rightEye
          {
            OFFSET -3.6576 8.04674 8.04672
            CHANNELS 3 Zrotation Xrotation Yrotation
            End Site
            {
              OFFSET 1 0 0
            }
          }
        }
      }
      JOINT rCollar
      {
        OFFSET -2.68224 19.2634 -4.8768
        CHANNELS 3 Zrotation Xrotation Yrotation
        JOINT rShldr
        {
          OFFSET -8.77824 -1.95073 1.46304
          CHANNELS 3 Zrotation Xrotation Yrotation
          JOINT rForeArm
          {
            OFFSET -28.1742 -1.7115 0.48768
            CHANNELS 3 Zrotation Xrotation Yrotation
            JOINT rHand
            {
              OFFSET -22.5879 0.773209 7.07136
              CHANNELS 3 Zrotation Xrotation Yrotation
              JOINT rThumb1
              {
                OFFSET -1.2192 -0.487915 3.41376
                CHANNELS 3 Zrotation Xrotation Yrotation
                JOINT rThumb2
                {
                  OFFSET -3.37035 -0.52449 3.41376
                  CHANNELS 3 Zrotation Xrotation Yrotation
                  End Site
                  {
                    OFFSET -1.78271 -1.18214 1.43049
                  }
                }
              }
              JOINT rIndex1
              {
                OFFSET -7.75947 0.938293 5.60832
                CHANNELS 3 Zrotation Xrotation Yrotation
                JOINT rIndex2
                {
                  OFFSET -2.54057 -0.884171 1.56538
                  CHANNELS 3 Zrotation Xrotation Yrotation
                  End Site
                  {
                    OFFSET -1.62519 -0.234802 1.16502
                  }
                }
              }
              JOINT rMid1
              {
                OFFSET -8.24714 1.18213 3.41376
                CHANNELS 3 Zrotation Xrotation Yrotation
                JOINT rMid2
                {
                  OFFSET -3.10165 -0.590103 1.0647
                  CHANNELS 3 Zrotation Xrotation Yrotation
                  End Site
                  {
                    OFFSET -2.48547 -0.328903 0.83742
                  }
                }
              }
              JOINT rRing1
              {
                OFFSET -8.82822 0.546677 1.51678
                CHANNELS 3 Zrotation Xrotation Yrotation
                JOINT rRing2
                {
                  OFFSET -2.60934 -0.819778 -0.0198488
                  CHANNELS 3 Zrotation Xrotation Yrotation
                  End Site
                  {
                    OFFSET -2.33842 -0.294052 0.168128
                  }
                }
              }
              JOINT rPinky1
              {
                OFFSET -8.27202 -0.0477905 -0.4584
                CHANNELS 3 Zrotation Xrotation Yrotation
                JOINT rPinky2
                {
                  OFFSET -1.82734 -0.647385 -0.700984
                  CHANNELS 3 Zrotation Xrotation Yrotation
                  End Site
                  {
                    OFFSET -1.69225 -0.51767 -0.607171
                  }
                }
              }
            }
          }
        }
      }
      JOINT lCollar
      {
        OFFSET 2.68224 19.2634 -4.8768
        CHANNELS 3 Zrotation Xrotation Yrotation
        JOINT lShldr
        {
          OFFSET 8.77824 -1.95073 1.46304
          CHANNELS 3 Zrotation Xrotation Yrotation
          JOINT lForeArm
          {
            OFFSET 28.1742 -1.7115 0.48768
            CHANNELS 3 Zrotation Xrotation Yrotation
            JOINT lHand
            {
              OFFSET 22.5879 0.773209 7.07136
              CHANNELS 3 Zrotation Xrotation Yrotation
              JOINT lThumb1
              {
                OFFSET 1.2192 -0.487915 3.41376
                CHANNELS 3 Zrotation Xrotation Yrotation
                JOINT lThumb2
                {
                  OFFSET 3.37035 -0.52449 3.41376
                  CHANNELS 3 Zrotation Xrotation Yrotation
                  End Site
                  {
                    OFFSET 1.78271 -1.18214 1.43049
                  }
                }
              }
              JOINT lIndex1
              {
                OFFSET 7.75947 0.938293 5.60832
                CHANNELS 3 Zrotation Xrotation Yrotation
                JOINT lIndex2
                {
                  OFFSET 2.54057 -0.884171 1.56538
                  CHANNELS 3 Zrotation Xrotation Yrotation
                  End Site
                  {
                    OFFSET 1.62519 -0.234802 1.16502
                  }
                }
              }
              JOINT lMid1
              {
                OFFSET 8.24714 1.18213 3.41376
                CHANNELS 3 Zrotation Xrotation Yrotation
                JOINT lMid2
                {
                  OFFSET 3.10165 -0.590103 1.0647
                  CHANNELS 3 Zrotation Xrotation Yrotation
                  End Site
                  {
                    OFFSET 2.48547 -0.328903 0.83742
                  }
                }
              }
              JOINT lRing1
              {
                OFFSET 8.82822 0.546677 1.51678
                CHANNELS 3 Zrotation Xrotation Yrotation
                JOINT lRing2
                {
                  OFFSET 2.60934 -0.819778 -0.0198488
                  CHANNELS 3 Zrotation Xrotation Yrotation
                  End Site
                  {
                    OFFSET 2.33842 -0.294052 0.168128
                  }
                }
              }
              JOINT lPinky1
              {
                OFFSET 8.27202 -0.0477905 -0.4584
                CHANNELS 3 Zrotation Xrotation Yrotation
                JOINT lPinky2
                {
                  OFFSET 1.82734 -0.647385 -0.700984
                  CHANNELS 3 Zrotation Xrotation Yrotation
                  End Site
                  {
                    OFFSET 1.69225 -0.51767 -0.607171
                  }
                }
              }
            }
          }
        }
      }
    }
  }
  JOINT rButtock
  {
    OFFSET -8.77824 4.35084 1.2192
    CHANNELS 3 Zrotation Xrotation Yrotation
    JOINT rThigh
    {
      OFFSET 0 -1.70687 -2.19456
      CHANNELS 3 Zrotation Xrotation Yrotation
      JOINT rShin
      {
        OFFSET 0 -36.8199 0.73152
        CHANNELS 3 Zrotation Xrotation Yrotation
        JOINT rFoot
        {
          OFFSET 0.73152 -45.1104 -5.12064
          CHANNELS 3 Zrotation Xrotation Yrotation
          End Site
          {
            OFFSET -1.1221 -3.69964 12.103
          }
        }
      }
    }
  }
  JOINT lButtock
  {
    OFFSET 8.77824 4.35084 1.2192
    CHANNELS 3 Zrotation Xrotation Yrotation
    JOINT lThigh
    {
      OFFSET 0 -1.70687 -2.19456
      CHANNELS 3 Zrotation Xrotation Yrotation
      JOINT lShin
      {
        OFFSET 0 -36.8199 0.73152
        CHANNELS 3 Zrotation Xrotation Yrotation
        JOINT lFoot
        {
          OFFSET -0.73152 -45.1104 -5.12064
          CHANNELS 3 Zrotation Xrotation Yrotation
          End Site
          {
            OFFSET 1.1221 -3.69964 12.103
          }
        }
      }
    }
  }
}
MOTION
Frames:	8
Frame Time:	0.00833333
62.5813 78.4725 4.60514 -0.0 0.0 -0.0 -0.0 -4.771896 -180.0 0.0 -4.771896 180.0 -8.110282 9.087343 -73.907862 10.961445 5.290797 74.04544 0.0 -0.0 -0.0 0.0 -0.0 -0.0 -142.973735 39.431617 147.390037 23.204946 -13.480853 6.58883 -93.441684 -80.522484 -102.254868 9.080469 -26.11959 3.028239 -179.145431 -16.660902 89.391899 -142.554728 11.497623 74.775684 -27.608968 30.765951 20.255213 79.652677 -67.967607 38.595755 -169.08961 -33.247392 145.374931 -127.081367 49.459124 118.397019 -72.350995 72.974965 90.218005 -154.420459 -23.452353 -169.174621 -141.577643 1.570229 -138.572663 -23.07375 -40.898739 -26.852466 158.417022 -29.366393 -166.793865 -6.019288 18.87558 -22.09947 162.241626 -5.946442 -169.107848 -21.840851 -48.372957 -11.728388 93.743665 37.963835 -53.548561 159.81097 -32.733776 -79.405381 83.732676 42.330462 -69.989987 -138.601242 -72.60999 -87.333053 36.036059 51.723116 -29.832321 167.446161 -15.392401 -146.812852 72.757246 -72.143382 89.772159 153.090362 -14.416524 -167.517519 144.109804 8.78177 140.874541 158.769878 54.017614 147.127959 -0.0 0.0 -0.0 -0.0 -0.0 -0.0 7.081855 4.181059 77.332942 -6.260749 -43.203663 -93.537886 -0.0 0.0 -0.0 -0.0 -0.0 -0.0 -7.081855 4.181059 -77.332942 6.260749 -43.203663 93.537886
62.10289999999999 78.7925 5.58435 -0.0 0.0 -0.0 -0.0 -4.771896 -180.0 -0.0 -4.771896 -180.0 -8.133567 10.422116 -81.502261 11.496437 6.51512 81.58876 -0.0 -0.0 0.0 -0.0 -0.0 0.0 0.163072 -0.990049 -0.218539 -0.146197 -0.01217 0.160364 -1.84798 6.828415 -0.013523 1.840702 -5.822849 0.293277 71.831195 -48.263725 25.791675 -34.104827 14.111869 -2.664129 -151.353117 -17.158427 121.133109 -5.925446 41.665146 5.625657 -161.518715 -9.304265 143.625478 13.061126 -19.81133 -1.048228 -0.014868 -1.323148 -0.415899 -85.375128 78.512327 88.553528 -12.374441 -24.158049 -11.75793 -81.826061 -55.553765 -79.778873 158.897905 -36.946461 -168.196659 -7.872884 10.293036 -21.163717 3.711109 -77.116276 40.830682 -165.310445 -30.025712 -141.273802 78.030619 38.689342 -42.41267 -109.29035 -54.80349 -44.029848 2.68634 4.226753 -1.583637 1.833927 2.088266 0.560773 174.670345 -47.954008 -144.48022 3.872414 21.23732 -7.07088 74.840941 72.961123 -92.827929 135.267659 -57.076044 151.507754 152.200278 37.330087 147.582714 146.976396 14.759486 141.399933 -0.0 0.0 -0.0 -0.0 -2.27635 -180.0 -6.880793 -5.921355 -107.859822 -11.465574 25.060334 -64.504817 -0.0 0.0 -0.0 -0.0 -2.27635 -180.0 6.880793 -5.921355 107.859822 11.465574 25.060334 64.504817
61.7199 79.1078 6.66409 -0.0 0.0 -0.0 -0.0 -4.771896 -180.0 0.0 -4.771896 180.0 -8.063956 8.6533 -71.432562 10.752387 4.907224 71.581577 0.0 -0.0 -0.0 0.0 -0.0 -0.0 -158.417022 -29.366393 166.793865 6.019288 18.87558 22.09947 -90.233869 -84.944636 -126.450145 159.189579 -41.557589 137.262124 -7.758532 7.439094 1.682075 -84.190082 18.534278 78.357654 -162.919155 -37.929343 122.629395 23.027824 0.845186 -6.998966 -160.673322 -6.667841 143.245105 -150.962755 19.449994 138.554354 0.000474 0.063775 0.020036 -166.255079 -54.18277 178.845879 -11.662826 -23.13088 -11.070095 -24.979901 -41.692961 -23.60834 13.015985 41.250126 -14.798846 -8.183761 -0.121626 3.949673 176.554752 64.026043 -144.998638 -169.806781 -18.885967 -143.53384 160.052267 2.213243 -88.877504 157.475991 -3.943222 -78.626959 -10.211155 -18.05077 4.56389 7.730597 12.241741 -6.150882 -0.047552 -0.138632 0.026316 -1.498243 -4.515166 0.529763 72.350995 72.974965 -90.218005 -10.658936 29.531932 12.354762 144.983436 11.469068 141.654399 159.29484 54.773204 146.88795 -0.0 0.0 -0.0 -0.0 -0.0 -0.0 7.038341 4.069833 76.29483 -4.664636 -1.629924 -78.598295 -0.0 0.0 -0.0 -0.0 -0.0 -0.0 -7.038341 4.069833 -76.29483 3.629419 -27.342285 86.305457
61.3578 79.3839 7.74846 -0.0 -0.0 -0.0 0.0 0.0 0.0 -0.0 0.0 -0.0 -5.797586 16.271287 -118.370606 11.670921 12.787598 117.88779 -0.0 0.0 -0.0 -0.0 0.0 -0.0 -33.837732 -85.66573 -55.255002 19.819596 -48.858949 22.718361 -160.026593 -25.327996 170.300916 37.490932 -61.016271 25.112441 -174.088169 -11.753554 89.875806 148.725103 -45.588844 100.03568 167.118118 -67.039241 108.168261 91.628653 -59.029746 30.744911 -0.338921 0.98201 0.189848 -44.451123 58.275917 35.308104 0.000474 0.063775 0.020036 -166.886416 -27.311303 174.987646 -86.171571 -50.468117 -84.540001 -156.401942 55.454995 -152.453214 159.220516 -48.028485 -170.415257 -51.675206 -62.841795 -42.163333 -179.851994 -1.653938 -178.689043 7.462468 23.038371 -0.721962 -170.729127 -25.696319 -87.147893 71.41491 10.876756 -18.401587 172.896918 -51.894009 -120.180804 160.985803 -31.70164 -111.56091 129.362651 47.296747 -118.700074 -2.887742 6.989444 1.450463 0.014868 -1.323148 0.415899 167.018912 -39.514614 -176.167961 1.203484 -3.047547 1.116064 161.624643 55.143218 150.283001 -0.0 0.0 -0.0 -0.0 -2.27635 -180.0 -6.880793 -5.921355 -107.859822 -9.151203 18.729204 -67.406397 -0.0 0.0 -0.0 -0.0 -2.27635 -180.0 6.880793 -5.921355 107.859822 9.151203 18.729204 67.406397
60.8823 79.5432 8.82083 -0.0 -0.0 -0.0 0.0 0.0 0.0 0.0 -0.0 0.0 -8.062445 11.209809 -86.0143 11.735776 7.269363 86.05873 -0.0 -0.0 0.0 -0.0 -0.0 0.0 -80.1661 68.371792 83.260848 16.928444 14.030768 -0.169595 101.410064 79.961053 -130.2325 -179.267081 14.749242 145.138674 178.851051 -18.544547 89.079181 -138.785987 13.801822 72.527839 -145.521835 -6.585001 118.766503 -48.766674 59.918438 41.52173 -160.673322 -6.667841 143.245105 -177.065959 -49.1864 140.858814 -145.119721 0.310087 -179.225753 -144.617988 -5.23188 -178.482215 -150.577948 31.033784 -146.363897 -138.428535 -6.239633 -135.67199 13.015985 41.250126 -14.798846 53.948181 89.417436 -64.613428 -171.468095 5.872646 -176.89026 21.871776 51.668636 -8.745754 -51.059793 -41.203951 -12.856726 9.767402 -23.948511 24.078979 -12.216524 -21.784719 5.120188 102.502411 41.289843 -73.330064 -173.123457 -66.297779 -137.614274 6.138891 23.12332 -8.387231 145.107439 3.759935 -179.689651 -22.606369 36.073577 5.782279 145.499137 13.103982 142.110579 -47.600511 79.590419 8.939236 -0.0 0.0 -0.0 -0.0 -0.0 -0.0 6.882802 3.713377 72.914422 -138.121164 35.951617 69.389052 -0.0 0.0 -0.0 -0.0 -0.0 -0.0 -6.882802 3.713377 -72.914422 138.121164 35.951617 -69.389052
60.3688 79.7203 9.9226 -0.0 0.0 -0.0 0.0 0.0 0.0 -0.0 -0.0 0.0 -7.417427 6.176288 -56.922404 9.210072 2.862964 57.092487 0.0 -0.0 -0.0 0.0 -0.0 -0.0 -9.651699 34.836178 11.199233 -164.286689 -29.23981 -175.882132 -170.055984 -85.246025 152.081156 166.775906 -26.653683 142.087759 -8.203144 7.848424 1.806973 -123.670806 -19.752899 108.593749 -117.258193 28.443591 99.152717 -149.406436 11.512191 122.694749 0.541241 -1.589941 -0.294737 0.064653 -0.216628 0.063546 -75.944678 -72.111289 -93.113302 -128.285515 56.78465 145.668636 -8.191002 -17.575975 -7.729117 -148.636674 9.694817 -143.992273 9.651699 34.836178 -11.199233 13.947974 -74.820692 25.030574 -175.766314 -34.403033 -140.600444 -175.098428 -3.118565 -145.100026 -2.016417 -2.000371 0.275365 132.79129 -30.932702 -117.440576 -164.415339 -68.214205 -106.131411 -1.1563 25.397965 -8.275712 -173.123457 -66.297779 -137.614274 -161.574286 -64.312 -125.285713 114.669357 66.731663 -135.092548 -12.064671 17.807538 13.971465 144.78382 10.845923 141.476964 152.966008 36.768669 146.115194 0.0 0.0 -0.0 -0.0 -0.0 -0.0 6.649139 3.263768 68.510317 3.486063 -61.932348 -86.704478 0.0 0.0 -0.0 -0.0 -0.0 -0.0 -4.304493 0.86717 -39.030537 76.190918 30.361278 -11.134962
59.84349999999999 79.9203 10.991 -0.0 -0.0 -0.0 0.0 0.0 0.0 0.0 -0.0 0.0 -1.239633 0.331232 -7.299189 1.271675 -0.170986 7.30467 0.0 -0.0 -0.0 0.0 -0.0 -0.0 -80.1661 68.371792 83.260848 16.928444 14.030768 -0.169595 166.526596 -0.317884 169.987671 -55.7926 71.080054 38.316481 -5.433768 5.264911 1.077842 -117.947237 -10.218857 105.742794 -10.571294 15.013433 6.865128 -6.013054 7.914707 -1.906009 -36.036059 51.723116 29.832321 -132.857666 54.056603 121.380296 0.004871 1.772325 0.55677 -3.34075 29.380328 4.294188 -153.203778 41.295859 -148.283783 51.64083 79.050661 -13.941636 143.620413 38.233348 -148.080496 -93.700912 -84.665221 -68.042651 89.986576 82.828057 -60.831831 -158.895934 -42.017436 -137.049807 3.030664 2.96398 -0.542007 37.135958 25.184183 -34.55874 90.225558 41.072425 -75.796697 176.012604 -42.3717 -122.385366 164.637861 -19.283648 -144.733631 16.102248 42.302901 -16.002267 72.757246 -72.143382 89.772159 -14.61463 0.654099 -5.887898 -5.663198 16.872151 -5.087837 155.289366 28.959422 146.233861 -0.0 0.0 -0.0 -0.0 -0.0 -0.0 6.649139 3.263768 68.510317 -152.790666 -75.672878 105.247904 -0.0 0.0 -0.0 -0.0 -0.0 -0.0 -6.649139 3.263768 -68.510317 152.790666 -75.672878 -105.247904
59.3381 80.1446 12.072 -0.0 -0.0 -0.0 0.0 0.0 0.0 0.0 -0.0 0.0 -1.239633 0.331232 -7.299189 1.271675 -0.170986 7.30467 0.0 -0.0 -0.0 0.0 -0.0 -0.0 -80.1661 68.371792 83.260848 16.928444 14.030768 -0.169595 166.526596 -0.317884 169.987671 -55.7926 71.080054 38.316481 -5.433768 5.264911 1.077842 -117.947237 -10.218857 105.742794 -10.571294 15.013433 6.865128 -6.013054 7.914707 -1.906009 -36.036059 51.723116 29.832321 -132.857666 54.056603 121.380296 0.004873 1.771387 0.556475 -164.312607 -64.076147 -177.948428 -146.226238 15.470244 -142.747894 -146.091473 14.551236 -142.24632 143.620413 38.233348 -148.080496 -93.700912 -84.665221 -68.042651 89.986576 82.828057 -60.831831 -158.895934 -42.017436 -137.049807 -93.028426 -51.083891 -40.500925 88.233017 38.073944 -48.329616 -5.921393 -10.174578 2.968574 9.395162 13.11164 -5.135456 0.057679 0.167876 -0.032027 0.504817 1.493464 -0.194619 77.742735 72.902851 -95.870145 164.410623 28.060014 175.656557 -1.134951 3.04054 -1.043633 26.518388 -40.963856 24.724112 -0.0 0.0 -0.0 -0.0 -0.0 -0.0 6.649139 3.263768 68.510317 -152.790666 -75.672878 105.247904 -0.0 0.0 -0.0 -0.0 -0.0 -0.0 -6.649139 3.263768 -68.510317 152.790666 -75.672878 -105.247904
